<svg width="29" height="29" viewBox="0 0 29 29" fill="none" xmlns="http://www.w3.org/2000/svg">
<path d="M11.8246 13.1993C12.1 13.0028 12.233 12.6784 12.233 12.2324C12.2425 12.0203 12.1982 11.8113 12.1032 11.621C12.0177 11.4682 11.8911 11.3403 11.736 11.2498C11.5752 11.1537 11.3965 11.0901 11.2105 11.0627C11.0079 11.0252 10.8021 11.0065 10.5995 11.0096H8.37414V13.4957H10.7832C11.1978 13.4988 11.5492 13.399 11.8246 13.1993ZM12.1982 15.4452C11.8879 15.2112 11.4732 15.0958 10.9573 15.0958H8.36781V18.0279H10.9066C11.144 18.0279 11.3625 18.0061 11.5745 17.9624C11.7752 17.9237 11.9665 17.8475 12.138 17.7378C12.2995 17.6349 12.4293 17.4945 12.5274 17.3136C12.6224 17.1327 12.6698 16.9019 12.6698 16.6243C12.6698 16.0721 12.5116 15.6822 12.1982 15.4452ZM14.7275 0.525879C6.89581 0.525879 0.545654 6.78307 0.545654 14.5001C0.545654 22.217 6.89581 28.4742 14.7275 28.4742C22.5591 28.4742 28.9093 22.217 28.9093 14.5001C28.9093 6.78307 22.5591 0.525879 14.7275 0.525879ZM17.4657 9.47497H21.8469V10.5261H17.4657V9.47497ZM14.7275 18.1433C14.5225 18.5266 14.2299 18.8577 13.8728 19.1103C13.4992 19.3661 13.0845 19.5532 12.6445 19.6624C12.1842 19.7839 11.7093 19.8438 11.2327 19.8402H5.99046V9.20047H11.087C11.603 9.20047 12.0715 9.24726 12.4989 9.3346C12.9231 9.42194 13.284 9.57166 13.5879 9.77441C13.8886 9.97716 14.126 10.2485 14.2938 10.5854C14.4584 10.9192 14.5439 11.3371 14.5439 11.8331C14.5439 12.3696 14.4204 12.8125 14.1735 13.1713C13.9234 13.53 13.5625 13.8201 13.0719 14.0478C13.7398 14.2349 14.2305 14.5687 14.5534 15.0366C14.8826 15.5107 15.044 16.0784 15.044 16.7459C15.044 17.2886 14.9396 17.7534 14.7275 18.1433ZM23.5531 16.4964H17.9057C17.9057 17.1015 18.1178 17.6817 18.4375 17.9936C18.7604 18.3024 19.2226 18.4584 19.8272 18.4584C20.2641 18.4584 20.6344 18.3492 20.951 18.134C21.2644 17.9187 21.4543 17.691 21.524 17.454H23.417C23.1131 18.3804 22.6509 19.0417 22.0241 19.4409C21.4037 19.8402 20.6439 20.0398 19.7607 20.0398C19.1435 20.0398 18.5895 19.94 18.0925 19.7497C17.6145 19.5657 17.184 19.285 16.8294 18.9231C16.4798 18.5515 16.2096 18.1145 16.0349 17.638C15.8418 17.1109 15.7468 16.5556 15.7531 15.9973C15.7531 15.4202 15.8512 14.8837 16.0412 14.3846C16.4052 13.4146 17.1618 12.6379 18.1273 12.2355C18.6433 12.0234 19.1973 11.9173 19.7576 11.9236C20.4224 11.9236 20.9985 12.0483 21.4987 12.3041C21.9802 12.5484 22.3982 12.8984 22.7206 13.3272C23.0403 13.7546 23.265 14.2412 23.4075 14.7901C23.5436 15.3298 23.5911 15.8975 23.5531 16.4964ZM19.6911 13.5144C19.3492 13.5144 19.0612 13.5736 18.8396 13.6891C18.618 13.8045 18.4344 13.9479 18.2951 14.1133C18.1624 14.2729 18.0644 14.4576 18.007 14.656C17.9564 14.8213 17.9215 14.9898 17.9089 15.1613H21.4068C21.3562 14.6217 21.1663 14.2224 20.913 13.9417C20.6471 13.6641 20.2198 13.5144 19.6911 13.5144Z" fill="black"/>
</svg>
