<svg width="29" height="29" viewBox="0 0 29 29" fill="none" xmlns="http://www.w3.org/2000/svg">
<path d="M19.4357 8.77002C18.4984 7.94824 17.3728 7.3626 16.1555 7.06327C14.9382 6.76394 13.6654 6.75984 12.4461 7.05132C12.6614 7.33517 14.0764 9.23166 15.3521 11.543C18.122 10.5199 19.2932 8.96653 19.4357 8.77002ZM15.6022 15.7727C11.2115 17.2793 9.63189 20.2831 9.4926 20.5638C10.8127 21.5776 12.4714 22.1827 14.2726 22.1827C15.3521 22.1827 16.3809 21.9675 17.3148 21.5745C17.1976 20.9007 16.7481 18.5551 15.6528 15.754L15.6022 15.7727ZM17.1122 15.4015C18.1315 18.1589 18.5462 20.4048 18.6253 20.8727C20.3727 19.7092 21.6168 17.8657 21.9618 15.729C21.6959 15.6479 19.5528 15.0178 17.1122 15.4015ZM14.2726 0.525879C6.44098 0.525879 0.0908203 6.78307 0.0908203 14.5001C0.0908203 22.217 6.44098 28.4742 14.2726 28.4742C22.1043 28.4742 28.4544 22.217 28.4544 14.5001C28.4544 6.78307 22.1043 0.525879 14.2726 0.525879ZM14.2726 23.4834C9.24569 23.4834 5.15575 19.4534 5.15575 14.5001C5.15575 9.54671 9.24569 5.51666 14.2726 5.51666C19.2996 5.51666 23.3895 9.54671 23.3895 14.5001C23.3895 19.4534 19.2996 23.4834 14.2726 23.4834ZM15.9536 12.6847C16.134 13.0496 16.3081 13.4208 16.4695 13.7951C16.5265 13.9261 16.5835 14.0571 16.6373 14.1912C19.2268 13.87 21.8036 14.3846 22.06 14.4377C22.0441 12.6254 21.3857 10.9628 20.3031 9.65588C20.1353 9.87735 18.8311 11.5274 15.9536 12.6847ZM13.8484 12.0047C12.5569 9.74322 11.1672 7.84361 10.9614 7.56599C8.78351 8.57975 7.15324 10.5573 6.64991 12.9373C6.99812 12.9436 10.208 12.9592 13.8484 12.0047ZM14.8171 14.578C14.9184 14.5468 15.0197 14.5156 15.1242 14.4876C14.9279 14.0509 14.7158 13.6142 14.4942 13.1869C10.6069 14.3347 6.83035 14.2848 6.49163 14.2786C6.48846 14.3566 6.48846 14.4346 6.48846 14.5125C6.48846 16.4839 7.24504 18.2837 8.48911 19.6437C8.66322 19.3442 10.8 15.8569 14.8171 14.578Z" fill="black"/>
</svg>
