<svg width="29" height="29" viewBox="0 0 29 29" fill="none" xmlns="http://www.w3.org/2000/svg">
<path d="M14.1818 0.525879C6.34932 0.525879 0 6.78223 0 14.5001C0 22.2179 6.34932 28.4742 14.1818 28.4742C22.0143 28.4742 28.3636 22.2179 28.3636 14.5001C28.3636 6.78223 22.0143 0.525879 14.1818 0.525879ZM10.7102 20.2921H7.83841V11.1856H10.7102V20.2921ZM9.25659 10.0676C8.34954 10.0676 7.76307 9.43441 7.76307 8.65128C7.76307 7.85213 8.36727 7.23785 9.29352 7.23785C10.2198 7.23785 10.787 7.85213 10.8048 8.65128C10.8048 9.43441 10.2198 10.0676 9.25659 10.0676ZM21.1989 20.2921H18.327V15.2453C18.327 14.0706 17.9104 13.2729 16.8719 13.2729C16.0786 13.2729 15.6074 13.813 15.3991 14.3327C15.3223 14.5175 15.3031 14.7795 15.3031 15.0401V20.2906H12.4298V14.0896C12.4298 12.9527 12.3928 12.0022 12.3544 11.1841H14.8495L14.981 12.4491H15.0386C15.4168 11.8551 16.3431 10.9789 17.8927 10.9789C19.7822 10.9789 21.1989 12.2263 21.1989 14.9076V20.2921Z" fill="black"/>
</svg>
