<svg width="131" height="74" viewBox="0 0 131 74" fill="none" xmlns="http://www.w3.org/2000/svg">
<path d="M18.3878 16.9457C18.3144 16.8096 18.1883 16.7087 18.041 16.6664C17.8937 16.6207 17.7334 16.6406 17.6014 16.7145L0.302401 26.2878C0.0205601 26.4439 -0.0826658 26.7995 0.071593 27.0835L1.4634 29.6581L19.7796 19.5192L18.3878 16.9457Z" fill="white"/>
<path d="M17.0874 31.3608H15.0983L11.6353 34.8813H13.6221L17.0874 31.3608Z" fill="white"/>
<path d="M20.5468 31.3608H18.7233L15.2603 34.8813H17.1717L20.5468 31.3608Z" fill="white"/>
<path d="M13.4632 31.3608H11.8615L8.36572 34.8813H9.99878L13.4632 31.3608Z" fill="white"/>
<path d="M4.77832 34.8813H6.72221L10.218 31.3608H8.27292L4.77832 34.8813Z" fill="white"/>
<path d="M20.5194 34.8813L23.5501 31.6249C23.446 31.4688 23.2787 31.3608 23.0792 31.3608H22.1618L18.7866 34.8813H20.5194Z" fill="white"/>
<path d="M2.7832 43.6824C2.7832 44.0051 3.04301 44.2692 3.36312 44.2692H23.0804C23.4005 44.2692 23.6603 44.0051 23.6603 43.6824V36.0548H2.7832V43.6824Z" fill="white"/>
<path d="M22.1123 34.8813H23.6595V33.2196L22.1123 34.8813Z" fill="white"/>
<path d="M2.78338 34.8813H3.13481L6.63057 31.3608H5.63311L20.9407 22.8882C21.2217 22.7345 21.3258 22.3754 21.1703 22.0914L20.3352 20.5483L2.01904 30.6872L2.78222 32.0978L2.78338 34.8813Z" fill="white"/>
<path d="M44.8784 31.538L42.193 39.0702L39.5076 31.538H33.8421V43H37.7228V35.5497L40.4737 43H43.9123L46.6632 35.5497V43H50.5439V31.538H44.8784ZM59.306 31.3088C55.589 31.3088 51.8557 32.8971 51.8557 37.269C51.8557 41.6573 55.589 43.2456 59.306 43.2456C63.0229 43.2456 66.7726 41.6573 66.7726 37.269C66.7726 32.8971 63.0229 31.3088 59.306 31.3088ZM59.306 40.6257C57.0627 40.6257 55.7855 39.3649 55.7855 37.269C55.7855 35.1895 57.0627 33.9287 59.306 33.9287C61.5656 33.9287 62.8264 35.1895 62.8264 37.269C62.8264 39.3649 61.5656 40.6257 59.306 40.6257ZM75.2005 31.3088C71.4835 31.3088 67.7502 32.8971 67.7502 37.269C67.7502 41.6573 71.4835 43.2456 75.2005 43.2456C78.9174 43.2456 82.6671 41.6573 82.6671 37.269C82.6671 32.8971 78.9174 31.3088 75.2005 31.3088ZM75.2005 40.6257C72.9572 40.6257 71.68 39.3649 71.68 37.269C71.68 35.1895 72.9572 33.9287 75.2005 33.9287C77.4601 33.9287 78.721 35.1895 78.721 37.269C78.721 39.3649 77.4601 40.6257 75.2005 40.6257ZM93.3742 31.538L89.8701 40.1181L86.3661 31.538H82.338L87.6269 43H92.1134L97.4187 31.538H93.3742ZM98.2357 31.538V43H102.133V31.538H98.2357ZM115.23 40.3637H107.649V38.448H114.608V35.7953H107.649V34.1907H115.067V31.538H103.768V43H115.23V40.3637ZM123.729 35.8445C121.764 35.648 120.34 35.5825 120.34 34.7965C120.34 34.1415 121.158 33.9123 122.73 33.9123C124.22 33.9123 125.137 34.2562 125.137 35.0421H129.084C129.084 33.0608 127.643 31.3088 122.78 31.3088C118.326 31.3088 116.475 32.6515 116.475 34.9766C116.475 37.269 117.72 38.0059 121.24 38.5462C124.532 39.0538 125.645 39.0047 125.645 39.7743C125.645 40.4129 124.728 40.6421 123.189 40.6421C121.584 40.6421 120.274 40.3474 120.274 39.2831H116.213C116.213 41.6901 118.129 43.2456 122.976 43.2456C127.479 43.2456 129.82 42.1158 129.82 39.3649C129.82 36.4667 127.315 36.2211 123.729 35.8445Z" fill="white"/>
</svg>
