<svg width="131" height="74" viewBox="0 0 131 74" fill="none" xmlns="http://www.w3.org/2000/svg">
<path d="M18.3878 16.9457C18.3144 16.8096 18.1883 16.7087 18.041 16.6664C17.8937 16.6207 17.7334 16.6406 17.6014 16.7145L0.302401 26.2878C0.0205601 26.4439 -0.0826658 26.7995 0.071593 27.0835L1.4634 29.6581L19.7796 19.5192L18.3878 16.9457Z" fill="#D32F27"/>
<path d="M17.0876 31.3608H15.0985L11.6355 34.8813H13.6223L17.0876 31.3608Z" fill="#D32F27"/>
<path d="M20.5466 31.3608H18.723L15.26 34.8813H17.1714L20.5466 31.3608Z" fill="#D32F27"/>
<path d="M13.4632 31.3608H11.8615L8.36572 34.8813H9.99878L13.4632 31.3608Z" fill="#D32F27"/>
<path d="M4.77832 34.8813H6.72221L10.218 31.3608H8.27292L4.77832 34.8813Z" fill="#D32F27"/>
<path d="M20.5197 34.8813L23.5503 31.6249C23.4462 31.4688 23.2789 31.3608 23.0794 31.3608H22.162L18.7869 34.8813H20.5197Z" fill="#D32F27"/>
<path d="M2.78345 43.6824C2.78345 44.0051 3.04325 44.2692 3.36337 44.2692H23.0807C23.4008 44.2692 23.6606 44.0051 23.6606 43.6824V36.0548H2.78345V43.6824Z" fill="#D32F27"/>
<path d="M22.1123 34.8813H23.6595V33.2196L22.1123 34.8813Z" fill="#D32F27"/>
<path d="M2.78338 34.8813H3.13481L6.63057 31.3608H5.63311L20.9407 22.8882C21.2217 22.7345 21.3258 22.3754 21.1703 22.0914L20.3352 20.5483L2.01904 30.6872L2.78222 32.0978L2.78338 34.8813Z" fill="#D32F27"/>
<path d="M44.8781 31.538L42.1928 39.0702L39.5074 31.538H33.8419V43H37.7226V35.5497L40.4735 43H43.9121L46.6629 35.5497V43H50.5436V31.538H44.8781ZM59.3057 31.3088C55.5888 31.3088 51.8555 32.8971 51.8555 37.269C51.8555 41.6573 55.5888 43.2456 59.3057 43.2456C63.0227 43.2456 66.7724 41.6573 66.7724 37.269C66.7724 32.8971 63.0227 31.3088 59.3057 31.3088ZM59.3057 40.6257C57.0625 40.6257 55.7853 39.3649 55.7853 37.269C55.7853 35.1895 57.0625 33.9287 59.3057 33.9287C61.5654 33.9287 62.8262 35.1895 62.8262 37.269C62.8262 39.3649 61.5654 40.6257 59.3057 40.6257ZM75.2002 31.3088C71.4833 31.3088 67.75 32.8971 67.75 37.269C67.75 41.6573 71.4833 43.2456 75.2002 43.2456C78.9172 43.2456 82.6669 41.6573 82.6669 37.269C82.6669 32.8971 78.9172 31.3088 75.2002 31.3088ZM75.2002 40.6257C72.957 40.6257 71.6798 39.3649 71.6798 37.269C71.6798 35.1895 72.957 33.9287 75.2002 33.9287C77.4599 33.9287 78.7207 35.1895 78.7207 37.269C78.7207 39.3649 77.4599 40.6257 75.2002 40.6257ZM93.374 31.538L89.8699 40.1181L86.3658 31.538H82.3377L87.6266 43H92.1132L97.4184 31.538H93.374ZM98.2355 31.538V43H102.133V31.538H98.2355ZM115.23 40.3637H107.649V38.448H114.608V35.7953H107.649V34.1907H115.066V31.538H103.768V43H115.23V40.3637ZM123.729 35.8445C121.764 35.648 120.34 35.5825 120.34 34.7965C120.34 34.1415 121.158 33.9123 122.73 33.9123C124.22 33.9123 125.137 34.2562 125.137 35.0421H129.083C129.083 33.0608 127.642 31.3088 122.779 31.3088C118.325 31.3088 116.475 32.6515 116.475 34.9766C116.475 37.269 117.72 38.0059 121.24 38.5462C124.531 39.0538 125.645 39.0047 125.645 39.7743C125.645 40.4129 124.728 40.6421 123.189 40.6421C121.584 40.6421 120.274 40.3474 120.274 39.2831H116.213C116.213 41.6901 118.129 43.2456 122.976 43.2456C127.479 43.2456 129.82 42.1158 129.82 39.3649C129.82 36.4667 127.315 36.2211 123.729 35.8445Z" fill="white"/>
</svg>
