<svg width="130" height="28" viewBox="0 0 130 28" fill="none" xmlns="http://www.w3.org/2000/svg">
<path d="M18.3878 0.303714C18.3144 0.16759 18.1883 0.0666702 18.041 0.0244247C17.8937 -0.0213413 17.7334 -0.00139203 17.6014 0.0725376L0.302401 9.64584C0.0205601 9.80191 -0.0826658 10.1575 0.071593 10.4415L1.4634 13.0161L19.7796 2.87717L18.3878 0.303714Z" fill="#D32F27"/>
<path d="M17.0876 14.7188H15.0985L11.6355 18.2393H13.6223L17.0876 14.7188Z" fill="#D32F27"/>
<path d="M20.5466 14.7188H18.723L15.26 18.2393H17.1714L20.5466 14.7188Z" fill="#D32F27"/>
<path d="M13.4632 14.7188H11.8615L8.36572 18.2393H9.99878L13.4632 14.7188Z" fill="#D32F27"/>
<path d="M4.77832 18.2393H6.72221L10.218 14.7188H8.27292L4.77832 18.2393Z" fill="#D32F27"/>
<path d="M20.5197 18.2393L23.5503 14.9828C23.4462 14.8268 23.2789 14.7188 23.0794 14.7188H22.162L18.7869 18.2393H20.5197Z" fill="#D32F27"/>
<path d="M2.78345 27.0404C2.78345 27.3632 3.04325 27.6272 3.36337 27.6272H23.0807C23.4008 27.6272 23.6606 27.3632 23.6606 27.0404V19.4128H2.78345V27.0404V27.0404Z" fill="#D32F27"/>
<path d="M22.1123 18.2393H23.6595V16.5776L22.1123 18.2393Z" fill="#D32F27"/>
<path d="M2.78338 18.2393H3.13481L6.63057 14.7188H5.63311L20.9407 6.24624C21.2217 6.09252 21.3258 5.73343 21.1703 5.44945L20.3352 3.90631L2.01904 14.0452L2.78222 15.4558L2.78338 18.2393Z" fill="#D32F27"/>
<path d="M44.878 14.896L42.1927 22.4282L39.5073 14.896H33.8418V26.358H37.7225V18.9077L40.4734 26.358H43.9119L46.6628 18.9077V26.358H50.5435V14.896H44.878Z" fill="black"/>
<path d="M59.3056 14.6668C55.5887 14.6668 51.8554 16.2551 51.8554 20.627C51.8554 25.0153 55.5887 26.6036 59.3056 26.6036C63.0226 26.6036 66.7723 25.0153 66.7723 20.627C66.7723 16.2551 63.0226 14.6668 59.3056 14.6668ZM59.3056 23.9837C57.0624 23.9837 55.7852 22.7229 55.7852 20.627C55.7852 18.5475 57.0624 17.2867 59.3056 17.2867C61.5653 17.2867 62.8261 18.5475 62.8261 20.627C62.8261 22.7229 61.5653 23.9837 59.3056 23.9837Z" fill="black"/>
<path d="M75.2001 14.6668C71.4832 14.6668 67.7499 16.2551 67.7499 20.627C67.7499 25.0153 71.4832 26.6036 75.2001 26.6036C78.9171 26.6036 82.6668 25.0153 82.6668 20.627C82.6668 16.2551 78.9171 14.6668 75.2001 14.6668ZM75.2001 23.9837C72.9569 23.9837 71.6797 22.7229 71.6797 20.627C71.6797 18.5475 72.9569 17.2867 75.2001 17.2867C77.4598 17.2867 78.7206 18.5475 78.7206 20.627C78.7206 22.7229 77.4598 23.9837 75.2001 23.9837Z" fill="black"/>
<path d="M93.3739 14.896L89.8698 23.4761L86.3657 14.896H82.3376L87.6265 26.358H92.1131L97.4183 14.896H93.3739Z" fill="black"/>
<path d="M98.2354 14.896V26.358H102.132V14.896H98.2354Z" fill="black"/>
<path d="M115.23 23.7218H107.649V21.806H114.608V19.1533H107.649V17.5487H115.066V14.896H103.768V26.358H115.23V23.7218Z" fill="black"/>
<path d="M123.729 19.2025C121.764 19.006 120.339 18.9405 120.339 18.1545C120.339 17.4995 121.158 17.2703 122.73 17.2703C124.22 17.2703 125.137 17.6142 125.137 18.4001H129.083C129.083 16.4188 127.642 14.6668 122.779 14.6668C118.325 14.6668 116.475 16.0095 116.475 18.3346C116.475 20.627 117.72 21.3639 121.24 21.9042C124.531 22.4118 125.645 22.3627 125.645 23.1323C125.645 23.7709 124.728 24.0001 123.189 24.0001C121.584 24.0001 120.274 23.7054 120.274 22.6411H116.213C116.213 25.0481 118.129 26.6036 122.976 26.6036C127.479 26.6036 129.82 25.4738 129.82 22.7229C129.82 19.8247 127.315 19.5791 123.729 19.2025Z" fill="black"/>
</svg>
