<svg width="24" height="29" viewBox="0 0 24 29" fill="none" xmlns="http://www.w3.org/2000/svg">
<path d="M18.3878 0.945682C18.3144 0.809558 18.1883 0.708638 18.041 0.666392C17.8937 0.620626 17.7334 0.640576 17.6014 0.714505L0.302401 10.2878C0.0205601 10.4439 -0.0826658 10.7994 0.071593 11.0834L1.4634 13.6581L19.7796 3.51914L18.3878 0.945682Z" fill="white"/>
<path d="M17.0876 15.3608H15.0985L11.6355 18.8812H13.6223L17.0876 15.3608Z" fill="white"/>
<path d="M20.5466 15.3608H18.723L15.26 18.8812H17.1714L20.5466 15.3608Z" fill="white"/>
<path d="M13.4632 15.3608H11.8615L8.36572 18.8812H9.99878L13.4632 15.3608Z" fill="white"/>
<path d="M4.77832 18.8812H6.72221L10.218 15.3608H8.27292L4.77832 18.8812Z" fill="white"/>
<path d="M20.5197 18.8812L23.5503 15.6248C23.4462 15.4687 23.2789 15.3608 23.0794 15.3608H22.162L18.7869 18.8812H20.5197Z" fill="white"/>
<path d="M2.78345 27.6824C2.78345 28.0051 3.04325 28.2692 3.36337 28.2692H23.0807C23.4008 28.2692 23.6606 28.0051 23.6606 27.6824V20.0547H2.78345V27.6824Z" fill="white"/>
<path d="M22.1123 18.8813H23.6595V17.2196L22.1123 18.8813Z" fill="white"/>
<path d="M2.78338 18.8812H3.13481L6.63057 15.3608H5.63311L20.9407 6.88821C21.2217 6.73448 21.3258 6.3754 21.1703 6.09141L20.3352 4.54828L2.01904 14.6872L2.78222 16.0977L2.78338 18.8812Z" fill="white"/>
</svg>
