<svg width="23" height="27" viewBox="0 0 23 27" fill="none" xmlns="http://www.w3.org/2000/svg">
<path d="M18.0215 1.058C17.9523 0.929473 17.8332 0.834188 17.6941 0.794301C17.555 0.75109 17.4036 0.769926 17.2791 0.839728L0.945918 9.87852C0.679813 10.0259 0.58235 10.3616 0.727996 10.6297L2.0421 13.0606L19.3356 3.48777L18.0215 1.058Z" fill="#D32F27"/>
<path d="M16.794 14.6683H14.9159L11.6462 17.9922H13.5221L16.794 14.6683Z" fill="#D32F27"/>
<path d="M20.0598 14.6683H18.338L15.0684 17.9922H16.8731L20.0598 14.6683Z" fill="#D32F27"/>
<path d="M13.372 14.6683H11.8597L8.55908 17.9922H10.101L13.372 14.6683Z" fill="#D32F27"/>
<path d="M5.17188 17.9922H7.00723L10.3078 14.6683H8.47136L5.17188 17.9922Z" fill="#D32F27"/>
<path d="M20.0342 17.9922L22.8957 14.9176C22.7974 14.7703 22.6394 14.6683 22.4511 14.6683H21.5849L18.3982 17.9922H20.0342Z" fill="#D32F27"/>
<path d="M3.28857 26.3019C3.28857 26.6066 3.53387 26.8559 3.83612 26.8559H22.4525C22.7548 26.8559 23.0001 26.6066 23.0001 26.3019V19.1001H3.28857V26.3019Z" fill="#D32F27"/>
<path d="M21.5383 17.9922H22.9992V16.4233L21.5383 17.9922Z" fill="#D32F27"/>
<path d="M3.28831 17.9922H3.62012L6.9207 14.6683H5.97893L20.4318 6.66876C20.6971 6.52361 20.7954 6.18458 20.6487 5.91645L19.8602 4.45947L2.56665 14.0323L3.28722 15.3641L3.28831 17.9922Z" fill="#D32F27"/>
</svg>
