<svg width="29" height="29" viewBox="0 0 29 29" fill="none" xmlns="http://www.w3.org/2000/svg">
<path d="M14.818 0.525879C6.98639 0.525879 0.63623 6.78307 0.63623 14.5001C0.63623 22.217 6.98639 28.4742 14.818 28.4742C22.6497 28.4742 28.9999 22.217 28.9999 14.5001C28.9999 6.78307 22.6497 0.525879 14.818 0.525879ZM21.6335 11.0595C21.643 11.2061 21.643 11.359 21.643 11.5087C21.643 16.0877 18.1039 21.3624 11.6366 21.3624C9.64231 21.3624 7.79361 20.7916 6.23615 19.809C6.52105 19.8402 6.79329 19.8527 7.08452 19.8527C8.73063 19.8527 10.2438 19.3037 11.4499 18.3741C9.90506 18.343 8.60717 17.3448 8.16399 15.9723C8.7053 16.0503 9.1928 16.0503 9.74994 15.9099C8.95452 15.7507 8.23957 15.325 7.72656 14.7052C7.21355 14.0855 6.93412 13.3098 6.93574 12.51V12.4663C7.40108 12.7252 7.94873 12.8843 8.5217 12.9061C8.04003 12.5898 7.64502 12.1613 7.37168 11.6585C7.09834 11.1558 6.95513 10.5943 6.95473 10.024C6.95473 9.37827 7.12568 8.78873 7.43274 8.27718C8.31563 9.34813 9.41734 10.224 10.6663 10.8479C11.9152 11.4719 13.2834 11.8298 14.6819 11.8986C14.1849 9.54359 15.9703 7.63774 18.1166 7.63774C19.1296 7.63774 20.0413 8.05571 20.6839 8.72947C21.4784 8.58286 22.2382 8.28966 22.9156 7.89663C22.6529 8.69827 22.1021 9.37515 21.3708 9.80248C22.0799 9.72762 22.7637 9.53423 23.3968 9.26286C22.9188 9.95533 22.3205 10.5698 21.6335 11.0595Z" fill="black"/>
</svg>
