<svg width="26" height="21" viewBox="0 0 26 21" fill="none" xmlns="http://www.w3.org/2000/svg">
<path d="M25.2728 2.48298C24.3701 2.88296 23.4004 3.15321 22.381 3.27537C23.4329 2.64599 24.2198 1.65543 24.595 0.488517C23.6067 1.0755 22.5252 1.48866 21.3973 1.71006C20.6389 0.900237 19.6343 0.363473 18.5395 0.183103C17.4447 0.0027342 16.321 0.188852 15.3428 0.71256C14.3647 1.23627 13.5868 2.06827 13.1299 3.07938C12.6731 4.0905 12.5628 5.22416 12.8163 6.30436C10.8139 6.20382 8.85502 5.68337 7.06681 4.77679C5.27859 3.8702 3.70099 2.59775 2.43637 1.042C2.00397 1.78789 1.75534 2.6527 1.75534 3.57373C1.75485 4.40286 1.95904 5.21929 2.34976 5.95058C2.74049 6.68188 3.30568 7.30542 3.99519 7.76589C3.19554 7.74045 2.41354 7.52437 1.71426 7.13566V7.20052C1.71418 8.36341 2.11643 9.49051 2.85276 10.3906C3.58909 11.2907 4.61415 11.9083 5.754 12.1386C5.01219 12.3393 4.23446 12.3689 3.47955 12.2251C3.80115 13.2257 4.42759 14.1006 5.27118 14.7275C6.11478 15.3544 7.13328 15.7018 8.18412 15.7211C6.40027 17.1214 4.19722 17.881 1.92938 17.8777C1.52766 17.8778 1.12627 17.8543 0.727295 17.8074C3.02928 19.2875 5.70897 20.073 8.44572 20.07C17.71 20.07 22.7745 12.3969 22.7745 5.74224C22.7745 5.52603 22.7691 5.30767 22.7594 5.09147C23.7445 4.37905 24.5949 3.49686 25.2706 2.48623L25.2728 2.48298Z" fill="#6DA7D7"/>
</svg>
